<svg width="73" height="24" viewBox="0 0 73 24" fill="none" xmlns="http://www.w3.org/2000/svg">
<rect width="73" height="24" rx="12" fill="#FFB020"/>
<path d="M8.8608 16V7.27273H12.1335C12.804 7.27273 13.3665 7.39773 13.821 7.64773C14.2784 7.89773 14.6236 8.24148 14.8565 8.67898C15.0923 9.11364 15.2102 9.60795 15.2102 10.1619C15.2102 10.7216 15.0923 11.2187 14.8565 11.6534C14.6207 12.0881 14.2727 12.4304 13.8125 12.6804C13.3523 12.9276 12.7855 13.0511 12.1122 13.0511H9.94318V11.7514H11.8991C12.2912 11.7514 12.6122 11.6832 12.8622 11.5469C13.1122 11.4105 13.2969 11.223 13.4162 10.9844C13.5384 10.7457 13.5994 10.4716 13.5994 10.1619C13.5994 9.85227 13.5384 9.57955 13.4162 9.34375C13.2969 9.10795 13.1108 8.92472 12.858 8.79403C12.608 8.66051 12.2855 8.59375 11.8906 8.59375H10.4418V16H8.8608ZM17.0835 16V7.27273H22.7596V8.59801H18.6644V10.9673H22.4656V12.2926H18.6644V14.6747H22.7937V16H17.0835ZM32.0444 7.27273V16H30.6381L26.5259 10.0554H26.4535V16H24.8725V7.27273H26.2873L30.3952 13.2216H30.4719V7.27273H32.0444ZM37.2244 16H34.267V7.27273H37.2841C38.1506 7.27273 38.8949 7.44744 39.517 7.79688C40.142 8.14347 40.6222 8.64205 40.9574 9.29261C41.2926 9.94318 41.4602 10.7216 41.4602 11.6278C41.4602 12.5369 41.2912 13.3182 40.9531 13.9716C40.6179 14.625 40.1335 15.1264 39.5 15.4759C38.8693 15.8253 38.1108 16 37.2244 16ZM35.848 14.6321H37.1477C37.7557 14.6321 38.2628 14.5213 38.669 14.2997C39.0753 14.0753 39.3807 13.7415 39.5852 13.2983C39.7898 12.8523 39.892 12.2955 39.892 11.6278C39.892 10.9602 39.7898 10.4062 39.5852 9.96591C39.3807 9.52273 39.0781 9.19176 38.6776 8.97301C38.2798 8.75142 37.7855 8.64062 37.1946 8.64062H35.848V14.6321ZM45.0433 7.27273V16H43.4624V7.27273H45.0433ZM54.4272 7.27273V16H53.021L48.9087 10.0554H48.8363V16H47.2553V7.27273H48.6701L52.7781 13.2216H52.8548V7.27273H54.4272ZM62.4964 10.0597C62.4254 9.82955 62.3274 9.62358 62.2024 9.44176C62.0803 9.2571 61.9325 9.09943 61.7592 8.96875C61.5888 8.83807 61.3928 8.74006 61.1712 8.67472C60.9496 8.60653 60.7081 8.57244 60.4467 8.57244C59.978 8.57244 59.5604 8.69034 59.1939 8.92614C58.8274 9.16193 58.5391 9.50852 58.3288 9.96591C58.1214 10.4205 58.0178 10.9744 58.0178 11.6278C58.0178 12.2869 58.1214 12.8452 58.3288 13.3026C58.5362 13.7599 58.8246 14.108 59.1939 14.3466C59.5632 14.5824 59.9922 14.7003 60.4808 14.7003C60.924 14.7003 61.3075 14.6151 61.6314 14.4446C61.9581 14.2741 62.2095 14.0327 62.3857 13.7202C62.5618 13.4048 62.6499 13.0355 62.6499 12.6122L63.0078 12.6676H60.6385V11.4318H64.1797V12.4801C64.1797 13.2273 64.0206 13.8736 63.7024 14.419C63.3842 14.9645 62.9467 15.3849 62.3899 15.6804C61.8331 15.973 61.1939 16.1193 60.4723 16.1193C59.6683 16.1193 58.9624 15.9389 58.3544 15.5781C57.7493 15.2145 57.2763 14.6989 56.9354 14.0312C56.5973 13.3608 56.4283 12.5653 56.4283 11.6449C56.4283 10.9403 56.5277 10.3111 56.7266 9.7571C56.9283 9.20312 57.2095 8.73295 57.5703 8.34659C57.9311 7.95739 58.3544 7.66193 58.8402 7.46023C59.326 7.25568 59.8544 7.15341 60.4254 7.15341C60.9084 7.15341 61.3587 7.22443 61.7763 7.36648C62.1939 7.50568 62.5646 7.70455 62.8885 7.96307C63.2152 8.22159 63.4837 8.52841 63.6939 8.88352C63.9041 9.23864 64.0419 9.63068 64.1072 10.0597H62.4964Z" fill="white"/>
</svg>
